<svg width="73" height="72" viewBox="0 0 73 72" fill="none" xmlns="http://www.w3.org/2000/svg">
<g clip-path="url(#clip0)">
<path d="M33.9878 36.2311C33.4368 36.7804 33.4368 37.6726 33.9878 38.2235C34.5387 38.7744 35.4303 38.7744 35.9802 38.2235C36.5311 37.6726 36.5311 36.7804 35.9802 36.2311C35.4303 35.6801 34.5387 35.6801 33.9878 36.2311Z" fill="white"/>
<path d="M56.392 4.19236C53.9741 6.06424 53.3153 7.02907 44.7402 15.5156L39.5996 14.6784L41.9585 12.3194C43.6108 10.6672 43.6114 7.99391 41.9585 6.34164C40.3068 4.68991 37.6319 4.68936 35.9802 6.34164L29.3171 13.0047L6.01467 9.21083C4.5088 8.96645 2.96825 9.46456 1.89059 10.5422C-0.181636 12.6144 0.099614 16.0428 2.46355 17.7535L25.6851 34.5701L21.3376 38.9182C19.8477 40.4081 18.2796 42.4572 16.668 45.016L5.83854 41.8314C4.24021 41.3619 2.51418 41.8017 1.33359 42.9801C-0.676438 44.9901 -0.372622 48.3282 1.96214 49.9453L10.84 56.091C9.29445 59.5017 8.35493 61.968 8.31145 62.082C8.11441 62.6004 8.24045 63.1866 8.63233 63.5785C9.02641 63.9726 9.61313 64.0953 10.1288 63.8994C10.2428 63.8564 12.7091 62.9164 16.1199 61.3709L22.2661 70.2492C23.8859 72.5878 27.224 72.8839 29.2318 70.8761C30.4097 69.6966 30.8494 67.9706 30.3794 66.3723L27.1954 55.5433C29.7558 53.9307 31.8038 52.3626 33.2932 50.8738L37.6413 46.5257L54.4574 69.7473C56.1707 72.1151 59.5991 72.3903 61.6691 70.3202C62.7463 69.2431 63.2444 67.7015 63.0005 66.195L59.2067 42.8942L65.8692 36.2317C67.5215 34.5795 67.5215 31.9046 65.8692 30.2528C64.2175 28.6006 61.5442 28.6006 59.8919 30.2528L57.5324 32.6118L56.6958 27.4712C65.1911 18.8873 66.1405 18.2438 68.0135 15.826C68.0157 15.8232 68.0185 15.8199 68.0207 15.8166C72.3666 10.1845 73.3837 4.49617 70.5497 1.66111C67.7152 -1.17176 62.0263 -0.155735 56.392 4.19236ZM37.9726 8.3346C38.523 7.78366 39.4152 7.78366 39.9661 8.3346C40.5171 8.88554 40.5165 9.77553 39.9661 10.3265L36.1717 14.1203L32.7444 13.5622L37.9726 8.3346ZM4.11582 15.4704C3.15153 14.7731 3.04091 13.3767 3.88355 12.5346C4.32222 12.0954 4.95076 11.8923 5.5628 11.992L42.2849 17.9709L27.7034 32.5518L4.11582 15.4704ZM3.32601 44.9736C3.77623 44.5239 4.4345 44.3555 5.04378 44.5349L15.1726 47.5137C14.1368 49.3278 13.0916 51.3317 12.0492 53.5008L3.56653 47.6287C2.67655 47.0123 2.55986 45.7392 3.32601 44.9736ZM27.2383 68.8848C26.4788 69.6443 25.2041 69.542 24.5827 68.6448L18.7105 60.1617C20.8813 59.1181 22.8858 58.0724 24.6977 57.0387L27.6759 67.167C27.8553 67.7769 27.6874 68.4351 27.2383 68.8848ZM61.8849 32.2453C62.4353 31.6949 63.3258 31.6943 63.8768 32.2453C64.4277 32.7962 64.4272 33.6878 63.8768 34.2388L58.6486 39.4664L58.0911 36.0391L61.8849 32.2453ZM60.2189 66.6469C60.3185 67.2606 60.1154 67.8892 59.6767 68.3278C58.8385 69.1661 57.441 69.0637 56.7404 68.095L39.659 44.508L54.2405 29.9265L60.2189 66.6469ZM31.3008 48.8808C29.7503 50.4318 27.481 52.1061 24.5563 53.858C20.7542 56.135 16.2547 58.2914 12.1961 60.0153C13.9667 55.8466 16.1639 51.2745 18.4898 47.4289C20.1911 44.6142 21.8197 42.4209 23.3305 40.9106C57.7487 6.575 55.7095 8.34616 57.7982 6.67572C60.1154 6.52767 62.1551 7.21566 63.5751 8.63567C64.9952 10.0557 65.6837 12.096 65.5356 14.4126C63.8614 16.5063 65.6116 14.4869 31.3008 48.8808ZM67.9469 10.7101C67.4967 9.15689 66.697 7.7721 65.5681 6.64325C64.4393 5.51495 63.0545 4.71468 61.5018 4.26446C63.541 3.23027 66.9749 2.07225 68.5573 3.65352C69.8067 4.90346 69.4963 7.65487 67.9469 10.7101Z" fill="white"/>
<path d="M41.9585 28.2604L37.9737 32.2447C37.4233 32.7951 37.4233 33.6873 37.9737 34.2377C38.5241 34.7881 39.4157 34.7875 39.9667 34.2377L43.951 30.2529C44.5014 29.703 44.5014 28.8108 43.951 28.2604C43.4006 27.7101 42.5089 27.7101 41.9585 28.2604Z" fill="white"/>
<path d="M49.9293 20.2897L45.9428 24.2757C45.393 24.8261 45.393 25.7183 45.9428 26.2686C46.4938 26.8185 47.3854 26.8185 47.9358 26.2686L51.9217 22.2827C52.4721 21.7323 52.4721 20.8401 51.9217 20.2897C51.3713 19.7394 50.4797 19.7394 49.9293 20.2897Z" fill="white"/>
</g>
<defs>
<clipPath id="clip0">
<rect width="72.1408" height="72" fill="white"/>
</clipPath>
</defs>
</svg>
