<svg width="72" height="72" viewBox="0 0 72 72" fill="none" xmlns="http://www.w3.org/2000/svg">
<g clip-path="url(#clip0)">
<path d="M36.0142 48.7182C35.1557 48.068 34.1013 47.8531 33.1178 48.0365C32.9632 47.1046 32.4671 46.2805 31.7111 45.7079C30.9277 45.1146 29.9605 44.862 28.9869 44.9963C28.7458 45.0297 28.5115 45.0859 28.2862 45.1634C28.0727 44.4314 27.6316 43.7593 26.9784 43.2646C25.9025 42.4496 24.5193 42.3193 23.3532 42.7988C23.1211 42.1 22.685 41.4875 22.0854 41.0333C21.3021 40.44 20.3343 40.1875 19.3612 40.3217C18.5719 40.4307 17.8555 40.7837 17.2964 41.3308L13.436 41.0742L15.8021 21.8532L20.0419 22.1414C20.066 22.1429 20.0899 22.1437 20.1137 22.1437C20.5071 22.1437 20.8706 21.9238 21.0519 21.57L22.6408 18.4696C23.0434 17.6848 23.9523 17.2859 24.8021 17.5211L27.1618 18.1736C27.7227 18.3285 28.3041 17.9995 28.4594 17.4382C28.6147 16.8768 28.2854 16.2957 27.724 16.1405L25.3647 15.4881C23.5563 14.9875 21.6213 15.8363 20.7642 17.5071L19.492 19.9895L16.0604 19.7564L16.1417 19.096C16.4016 16.9854 14.8959 15.057 12.7853 14.7971L4.65889 13.7973C4.0798 13.7264 3.55443 14.1371 3.48327 14.7151C3.41211 15.2932 3.82316 15.8196 4.40113 15.8907L12.5275 16.8911C12.9908 16.9481 13.404 17.1821 13.6912 17.55C13.9784 17.9178 14.1052 18.3756 14.0481 18.8388L11.2576 41.5074C11.1399 42.4636 10.266 43.1452 9.30991 43.0282L1.1835 42.0278C0.604687 41.9572 0.0790328 42.3675 0.00787685 42.9456C-0.0632791 43.5237 0.347766 44.0501 0.925733 44.1212L9.05214 45.1216C9.21133 45.1412 9.36953 45.1507 9.52605 45.1507C10.9506 45.1507 12.2357 44.3593 12.9016 43.1529L15.7896 43.3448C15.4444 44.0131 15.312 44.7695 15.4169 45.5299C15.5514 46.5031 16.0568 47.366 16.8401 47.9592C17.486 48.4484 18.2569 48.7059 19.0534 48.7059C19.2228 48.7059 19.3934 48.6942 19.5642 48.6707C19.5752 48.6692 19.5859 48.6671 19.5967 48.6654C19.5981 48.6763 19.599 48.6872 19.6004 48.6981C19.7348 49.6714 20.2402 50.5343 21.0235 51.1274C21.6865 51.6295 22.4662 51.872 23.24 51.872C23.4214 51.872 23.6024 51.8573 23.7816 51.8308C23.9031 52.7769 24.3884 53.6757 25.2071 54.2957C25.8701 54.7979 26.6497 55.0403 27.4236 55.0403C27.6044 55.0403 27.7849 55.0257 27.9635 54.9994C27.965 55.011 27.9659 55.0229 27.9674 55.0345C28.1018 56.0078 28.6072 56.8707 29.3907 57.4638C30.0366 57.9529 30.8075 58.2105 31.6038 58.2105C31.7734 58.2105 31.944 58.1989 32.1147 58.1754C33.0881 58.0409 33.9508 57.5355 34.544 56.7523L36.7256 53.8716C37.9505 52.2547 37.6313 49.9428 36.0142 48.7182ZM19.2758 46.5813C18.8608 46.6387 18.448 46.5308 18.1138 46.2777C17.7797 46.0247 17.5641 45.6566 17.5068 45.2414C17.4494 44.8262 17.5573 44.4136 17.8104 44.0793L18.6138 43.0185C18.8667 42.6843 19.2349 42.4688 19.65 42.4114C20.0653 42.3544 20.4779 42.4619 20.8121 42.715C21.1463 42.968 21.3618 43.3361 21.4192 43.7513C21.4766 44.1664 21.3687 44.579 21.1158 44.9132L20.3122 45.9741C20.0591 46.3082 19.6911 46.5239 19.2758 46.5813ZM22.2973 49.446C21.9632 49.193 21.7476 48.8248 21.6902 48.4097C21.6328 47.9944 21.7407 47.5819 21.9938 47.2476L22.7972 46.1869C22.7972 46.1869 22.7973 46.1867 22.7973 46.1866L23.5068 45.2497C23.815 44.8428 24.2846 44.6286 24.7596 44.6286C25.0897 44.6286 25.4222 44.7321 25.705 44.9463C26.3948 45.4687 26.5311 46.4548 26.0086 47.1447L24.4957 49.1425C23.9732 49.8323 22.987 49.9684 22.2973 49.446ZM26.4809 52.6142C26.1467 52.3613 25.9312 51.9931 25.8738 51.5778C25.8164 51.1629 25.9241 50.7503 26.177 50.4163C26.1771 50.4161 26.1771 50.416 26.1772 50.4159L27.6902 48.4179L28.2392 47.693C28.4922 47.3588 28.8604 47.1433 29.2756 47.0859C29.691 47.0288 30.1035 47.1364 30.4378 47.3895C31.1272 47.9116 31.2635 48.8973 30.7418 49.587L28.6792 52.3105C28.6791 52.3106 28.679 52.3108 28.679 52.3109C28.1564 53.0004 27.1708 53.1367 26.4809 52.6142ZM35.0443 52.5982L32.8627 55.4789C32.6097 55.813 32.2415 56.0286 31.8264 56.086C31.4109 56.1432 30.9984 56.0355 30.6643 55.7825C30.3302 55.5295 30.1146 55.1614 30.0572 54.7463C29.9998 54.331 30.1077 53.9184 30.3608 53.5841L32.4229 50.8614C32.4234 50.8609 32.4237 50.8604 32.4241 50.86L32.5426 50.7034C32.7956 50.3693 33.1638 50.1537 33.579 50.0964C33.9943 50.0394 34.4069 50.1469 34.7411 50.4C35.4305 50.9221 35.5667 51.9085 35.0443 52.5982Z" fill="white"/>
<path d="M71.9921 42.9456C71.9209 42.3676 71.3951 41.9571 70.8164 42.0277L62.6902 43.0281C61.7327 43.1458 60.8602 42.4635 60.7425 41.5074L60.6593 40.8309L60.64 40.6742L57.9521 18.8387C57.895 18.3755 58.0219 17.9179 58.309 17.5499C58.5962 17.182 59.0095 16.948 59.4727 16.8911L67.5991 15.8907C68.1772 15.8195 68.5881 15.2932 68.5169 14.7151C68.4458 14.1371 67.92 13.7266 67.3413 13.7972L59.2149 14.7976C57.2289 15.0422 55.779 16.7641 55.8312 18.7251L53.7819 18.9774L47.4361 15.4062C46.5375 14.9 45.5188 14.6826 44.4901 14.7771C44.488 14.7772 44.4859 14.7778 44.4838 14.7779L42.5737 14.9545C41.9936 15.0081 41.567 15.5218 41.6207 16.1019C41.6743 16.6818 42.1871 17.1078 42.7681 17.0549L44.6835 16.8777C45.2828 16.8223 45.8768 16.9492 46.4011 17.2442L52.9805 20.9468C53.1864 21.0827 53.4369 21.1448 53.6904 21.1138L56.0706 20.8208L57.8164 35.0018L58.4201 39.906L54.6237 39.9091C54.3706 39.9092 54.1261 40.0005 53.935 40.1657L53.6413 40.3944L44.11 32.1796C46.2882 31.5534 48.3645 30.0388 50.3058 27.6548C50.6735 27.2031 50.6056 26.5388 50.1539 26.1709C49.7022 25.8032 49.0378 25.8711 48.6701 26.3228C46.5002 28.9876 44.2187 30.3592 41.8889 30.3995C38.4946 30.4633 36.0006 27.6489 35.9777 27.6226C35.7703 27.3827 35.4663 27.2499 35.1493 27.2576C34.8323 27.2666 34.5363 27.4179 34.3431 27.6692L31.5099 31.3564C30.0172 33.2993 27.4743 34.0232 25.182 33.1573L24.8795 33.0429C24.6139 32.9425 24.5056 32.735 24.4648 32.6201C24.424 32.5052 24.3768 32.2758 24.5194 32.0303L31.914 19.3028C32.3922 18.4796 33.2438 17.9358 34.1919 17.848L38.57 17.4432C39.1501 17.3895 39.5767 16.8758 39.523 16.2958C39.4693 15.7159 38.9556 15.2894 38.3757 15.3428L33.9976 15.7477C32.3713 15.8981 30.9105 16.831 30.0899 18.2432L22.6953 30.9707C22.2791 31.6873 22.1995 32.5461 22.4772 33.327C22.7549 34.1079 23.3589 34.7235 24.1341 35.0163L24.4365 35.1306C25.3287 35.4676 26.2479 35.6303 27.1549 35.6303C29.4686 35.6301 31.7003 34.5707 33.1825 32.6417L35.2963 29.8908C36.429 30.867 38.5422 32.3129 41.2396 32.4906L55.0131 44.3615C55.2607 44.5748 55.4105 44.8718 55.4347 45.1978C55.4588 45.5238 55.3548 45.8398 55.1417 46.0871L54.605 46.7097C53.9307 47.4907 52.7454 47.5774 51.9629 46.9034C51.9192 46.8657 51.8726 46.8334 51.825 46.8042L48.2495 43.7211C47.8086 43.3409 47.1425 43.3901 46.7619 43.8312C46.3815 44.2724 46.4309 44.9383 46.872 45.3187L49.7776 47.8241L48.4522 49.3623C48.045 49.8346 47.4321 50.0732 46.8135 50.0005C46.4433 49.957 46.0966 49.8038 45.8112 49.5576C45.8061 49.5532 45.8006 49.5496 45.7956 49.5453L42.4733 46.6808C42.0322 46.3006 41.3663 46.3498 40.9858 46.7909C40.6054 47.2321 40.6548 47.8981 41.0959 48.2785L43.6347 50.4676L42.3015 52.016C41.8941 52.4885 41.2798 52.7271 40.6611 52.6543C40.0824 52.5859 39.5584 53.0002 39.4905 53.5786C39.4226 54.1571 39.8363 54.6812 40.4148 54.7492C40.5711 54.7674 40.7269 54.7766 40.8821 54.7766C42.0339 54.7766 43.1362 54.2778 43.8995 53.3928L45.3249 51.7375C45.7143 51.9232 46.1329 52.0445 46.5672 52.0956C47.8834 52.2503 49.1846 51.7433 50.05 50.7395L51.4778 49.0826C53.0567 49.8315 55.0069 49.4722 56.2022 48.0875L56.7397 47.4641C57.3207 46.7895 57.6044 45.9291 57.5384 45.0413C57.4724 44.1534 57.0645 43.3444 56.3903 42.7637L55.5247 42.0177L58.6888 42.015C59.0346 43.8375 60.6385 45.1508 62.4738 45.1508C62.6301 45.1508 62.7886 45.1413 62.9477 45.1217L71.0741 44.1213C71.6522 44.05 72.0632 43.5238 71.9921 42.9456Z" fill="white"/>
<path d="M65.2502 35.3315C63.5444 35.3315 62.1566 36.7192 62.1566 38.425C62.1566 40.1308 63.5444 41.5186 65.2502 41.5186C66.956 41.5186 68.3437 40.1308 68.3437 38.425C68.3437 36.7192 66.956 35.3315 65.2502 35.3315ZM65.2502 39.4092C64.7075 39.4092 64.266 38.9677 64.266 38.425C64.266 37.8823 64.7075 37.4409 65.2502 37.4409C65.7929 37.4409 66.2343 37.8823 66.2343 38.425C66.2343 38.9677 65.7929 39.4092 65.2502 39.4092Z" fill="white"/>
<path d="M9.7297 38.4253C9.7297 36.7195 8.34201 35.3318 6.63623 35.3318C4.93045 35.3318 3.54276 36.7195 3.54276 38.4253C3.54276 40.131 4.93045 41.5189 6.63623 41.5189C8.34201 41.5189 9.7297 40.131 9.7297 38.4253ZM5.65214 38.4253C5.65214 37.8826 6.09356 37.4412 6.63623 37.4412C7.1789 37.4412 7.62033 37.8826 7.62033 38.4253C7.62033 38.9679 7.1789 39.4095 6.63623 39.4095C6.09356 39.4095 5.65214 38.9679 5.65214 38.4253Z" fill="white"/>
</g>
<defs>
<clipPath id="clip0">
<rect width="72" height="72" fill="white"/>
</clipPath>
</defs>
</svg>
