<svg width="25" height="24" viewBox="0 0 25 24" fill="none" xmlns="http://www.w3.org/2000/svg">
<path fill-rule="evenodd" clip-rule="evenodd" d="M7.98988 0H17.6734C21.6089 0 24.8106 3.20174 24.8107 7.13722V16.8208C24.8107 20.7563 21.6089 23.958 17.6734 23.958H7.98988C4.0544 23.958 0.852661 20.7563 0.852661 16.8208V7.13722C0.852661 3.20174 4.0544 0 7.98988 0ZM17.6734 21.5478C20.2841 21.5478 22.4005 19.4314 22.4005 16.8208V7.1372C22.4005 4.5265 20.2841 2.41016 17.6734 2.41016H7.98986C5.37921 2.41016 3.26282 4.5265 3.26282 7.1372V16.8208C3.26282 19.4314 5.37921 21.5478 7.98986 21.5478H17.6734Z" fill="white"/>
<path fill-rule="evenodd" clip-rule="evenodd" d="M6.63525 11.9791C6.63525 8.56241 9.41495 5.78271 12.8316 5.78271C16.2483 5.78271 19.028 8.56237 19.028 11.9791C19.028 15.3958 16.2483 18.1755 12.8316 18.1755C9.41495 18.1755 6.63525 15.3957 6.63525 11.9791ZM9.04541 11.9791C9.04541 14.0702 10.7405 15.7653 12.8316 15.7653C14.9227 15.7653 16.6178 14.0701 16.6178 11.9791C16.6178 9.888 14.9227 8.19287 12.8316 8.19287C10.7406 8.19287 9.04541 9.888 9.04541 11.9791Z" fill="white"/>
<path d="M19.04 7.3138C19.86 7.3138 20.5247 6.64904 20.5247 5.82902C20.5247 5.009 19.86 4.34424 19.04 4.34424C18.2199 4.34424 17.5552 5.009 17.5552 5.82902C17.5552 6.64904 18.2199 7.3138 19.04 7.3138Z" fill="white"/>
</svg>
