<svg width="72" height="72" viewBox="0 0 72 72" fill="none" xmlns="http://www.w3.org/2000/svg">
<g clip-path="url(#clip0)">
<path d="M61.1766 24.0598C61.1759 24.0598 61.175 24.0598 61.1742 24.0598H1.03086C0.462202 24.0592 0.000602022 24.5196 5.88585e-07 25.0883C5.88585e-07 25.089 5.88585e-07 25.0899 5.88585e-07 25.0907V53.9595C-0.000600845 54.5281 0.459796 54.9897 1.02845 54.9903C1.0292 54.9903 1.03011 54.9903 1.03086 54.9903H41.9283C42.4976 54.9903 42.9592 54.5287 42.9592 53.9595C42.9592 53.3902 42.4976 52.9286 41.9283 52.9286H2.06171V26.1215H60.1433V28.6993C60.1427 29.2679 60.6031 29.7295 61.1718 29.7301C61.1725 29.7301 61.1735 29.7301 61.1742 29.7301C61.7429 29.7307 62.2045 29.2703 62.2051 28.7017C62.2051 28.7009 62.2051 28.7 62.2051 28.6993V25.0907C62.2057 24.522 61.7453 24.0606 61.1766 24.0598Z" fill="white"/>
<path d="M54.1832 19.2736L6.06849 8.4478C5.80145 8.3881 5.52164 8.43652 5.29024 8.58252C5.05913 8.72972 4.8957 8.96232 4.83555 9.22966L2.42982 20.0555C2.30622 20.6115 2.65686 21.1624 3.21288 21.286C3.76891 21.4096 4.31982 21.0589 4.44342 20.5029L6.62422 10.6863L53.7309 21.2848C53.8055 21.3021 53.8817 21.3106 53.9582 21.31C54.5275 21.309 54.9882 20.8466 54.9873 20.2774C54.9864 19.7961 54.6526 19.3796 54.1832 19.2736Z" fill="white"/>
<path d="M48.3408 13.3084L19.472 1.27978C18.9703 1.07063 18.3922 1.2855 18.1489 1.77175L15.7432 6.58322C15.4715 7.08572 15.6585 7.71347 16.1612 7.98516C16.6637 8.25686 17.2914 8.06981 17.5631 7.56717C17.5738 7.54747 17.5838 7.52732 17.5932 7.50687V7.50928L19.5671 3.55906L47.5445 15.216C48.0714 15.4359 48.6767 15.1872 48.8966 14.6603C49.1164 14.1338 48.8677 13.5284 48.3408 13.3084Z" fill="white"/>
<path d="M49.0698 28.8713H39.5226C38.9534 28.8713 38.4918 29.3329 38.4918 29.9022C38.4918 30.4715 38.9534 30.9331 39.5226 30.9331H49.0698C49.639 30.9331 50.1006 30.4715 50.1006 29.9022C50.1006 29.3329 49.639 28.8713 49.0698 28.8713Z" fill="white"/>
<path d="M29.8997 28.9399C24.0536 28.9399 19.3145 33.6791 19.3145 39.5252C19.3205 45.3687 24.0562 50.1044 29.8997 50.1104C35.7458 50.1104 40.4849 45.3712 40.4849 39.5252C40.4849 33.6791 35.7458 28.9399 29.8997 28.9399ZM29.8997 48.1858C25.1165 48.1858 21.239 44.3084 21.239 39.5252C21.2443 34.7442 25.1187 30.8698 29.8997 30.8645C34.6829 30.8645 38.5603 34.742 38.5603 39.5252C38.5603 44.3084 34.6829 48.1858 29.8997 48.1858Z" fill="white"/>
<path d="M58.7685 32.3079C52.3933 32.3079 45.5369 33.8139 45.5369 37.1193V65.9881C45.5369 69.2936 52.3933 70.7996 58.7685 70.7996C65.1437 70.7996 72 69.2936 72 65.9881V37.1193C72 33.8139 65.1437 32.3079 58.7685 32.3079ZM69.5943 65.9701C69.4126 66.6377 65.8052 68.3938 58.7685 68.3938C51.7317 68.3938 48.1243 66.6377 47.9427 65.9881V64.0972C50.5024 65.3867 54.7304 65.9881 58.7685 65.9881C62.8065 65.9881 67.0358 65.3807 69.5943 64.096V65.9701ZM69.5943 61.1586C69.4126 61.8262 65.8052 63.5824 58.7685 63.5824C51.7317 63.5824 48.1243 61.8262 47.9427 61.1767V59.2857C50.5024 60.5752 54.7304 61.1767 58.7685 61.1767C62.8065 61.1767 67.0358 60.5692 69.5943 59.2845V61.1586ZM69.5943 56.3471C69.4126 57.0147 65.8052 58.7709 58.7685 58.7709C51.7317 58.7709 48.1243 57.0147 47.9427 56.3652V54.4743C50.5024 55.7638 54.7304 56.3652 58.7685 56.3652C62.8065 56.3652 67.0358 55.7577 69.5943 54.4731V56.3471ZM69.5943 51.5357C69.4126 52.2033 65.8052 53.9595 58.7685 53.9595C51.7317 53.9595 48.1243 52.2033 47.9427 51.5537V49.6628C50.5024 50.9523 54.7304 51.5537 58.7685 51.5537C62.8065 51.5537 67.0358 50.9463 69.5943 49.6616V51.5357ZM69.5943 46.7242C69.4126 47.3918 65.8052 49.148 58.7685 49.148C51.7317 49.148 48.1243 47.3918 47.9427 46.7423V44.8514C50.5024 46.1348 54.7304 46.7423 58.7685 46.7423C62.8065 46.7423 67.0358 46.1348 69.5943 44.8501V46.7242ZM69.5943 41.9127C69.4126 42.5803 65.8052 44.3365 58.7685 44.3365C51.7317 44.3365 48.1243 42.5803 47.9427 41.9308V40.0399C50.5024 41.3233 54.7304 41.9308 58.7685 41.9308C62.8065 41.9308 67.0358 41.3233 69.5943 40.0387V41.9127ZM58.7685 39.5251C51.7425 39.5251 48.1363 37.7737 47.9427 37.141V37.1338C48.1363 36.4638 51.7425 34.7136 58.7685 34.7136C65.7451 34.7136 69.3537 36.4385 69.5943 37.1193C69.3537 37.8001 65.7451 39.5251 58.7685 39.5251Z" fill="white"/>
<path d="M20.2767 48.116H11.1842L6.87316 43.4008V35.5821L11.6341 30.9331H20.2767C20.846 30.9331 21.3076 30.4715 21.3076 29.9022C21.3076 29.3329 20.846 28.8713 20.2767 28.8713H11.2155C10.9461 28.8707 10.687 28.9757 10.4938 29.1636L5.12058 34.4045C4.91985 34.6391 4.80979 34.9379 4.81024 35.2465V43.8013C4.81024 44.0586 4.90632 44.3065 5.07969 44.4966L9.96693 49.8421C10.1622 50.0559 10.4386 50.1779 10.7283 50.1777H20.2767C20.846 50.1777 21.3076 49.7161 21.3076 49.1469C21.3076 48.5776 20.8461 48.116 20.2767 48.116Z" fill="white"/>
<path d="M30.501 38.3223H29.2982C28.9241 38.3223 28.6967 38.113 28.6967 38.0216C28.6967 37.9302 28.9241 37.7209 29.2982 37.7209H32.3053C32.9696 37.7209 33.5082 37.1823 33.5082 36.518C33.5082 35.8538 32.9696 35.3152 32.3053 35.3152H31.1025C31.1025 34.6509 30.5639 34.1123 29.8996 34.1123C29.2353 34.1123 28.6967 34.6509 28.6967 35.3152V35.3693C27.3626 35.5577 26.3519 36.6696 26.291 38.0156C26.3772 39.5927 27.7205 40.8044 29.2982 40.7281H30.501C30.8751 40.7281 31.1025 40.9374 31.1025 41.0288C31.1025 41.1202 30.8751 41.3295 30.501 41.3295H27.4939C26.8296 41.3295 26.291 41.8681 26.291 42.5324C26.291 43.1966 26.8296 43.7352 27.4939 43.7352H28.6967C28.6967 44.3995 29.2353 44.9381 29.8996 44.9381C30.5639 44.9381 31.1025 44.3995 31.1025 43.7352V43.6811C32.4366 43.4927 33.4473 42.3808 33.5082 41.0348C33.4221 39.4577 32.0788 38.246 30.501 38.3223Z" fill="white"/>
</g>
<defs>
<clipPath id="clip0">
<rect width="72" height="72" fill="white"/>
</clipPath>
</defs>
</svg>
