<svg width="72" height="72" viewBox="0 0 72 72" fill="none" xmlns="http://www.w3.org/2000/svg">
<g clip-path="url(#clip0)">
<path d="M55.171 31.7913C55.171 29.5119 53.3167 27.6578 51.0373 27.6578H43.4405C45.2862 25.5831 46.4924 23.2208 46.7255 21.1014C46.8678 19.8069 46.4678 18.522 45.6279 17.5761C44.8602 16.7114 43.8104 16.2294 42.6719 16.2189C42.6587 16.2187 42.6455 16.2188 42.6324 16.2188C41.5312 16.2188 40.4976 16.6429 39.7176 17.4158C38.9374 18.1888 38.5056 19.2186 38.5006 20.3175C38.4605 20.5582 38.0372 21.3877 37.0015 22.3726C36.1536 23.1793 34.6888 24.2881 32.5261 24.9902C31.6782 25.2656 30.9032 25.7725 30.2228 26.497C29.8658 26.877 29.3311 27.4018 28.6692 27.9286C28.3444 27.7565 27.9749 27.658 27.5825 27.658H20.3674C19.0827 27.658 18.0375 28.7032 18.0375 29.9879V49.228C18.0375 50.5127 19.0827 51.5578 20.3674 51.5578H27.5825C28.4583 51.5578 29.222 51.0715 29.62 50.3553H48.031C49.9788 50.3553 51.5634 48.7708 51.5634 46.823C51.5634 46.1681 51.3844 45.5544 51.0725 45.0279C52.0873 44.4066 52.7659 43.2875 52.7659 42.0129C52.7659 41.358 52.5868 40.7443 52.2749 40.2178C53.2898 39.5965 53.9683 38.4774 53.9683 37.2028C53.9683 36.4657 53.7414 35.7805 53.3537 35.2135C54.4496 34.4692 55.171 33.2129 55.171 31.7913ZM51.0373 33.6702H50.436C49.8134 33.6702 49.3086 34.1749 49.3086 34.7976C49.3086 35.4201 49.8133 35.925 50.436 35.925C51.1405 35.925 51.7137 36.4981 51.7137 37.2027C51.7137 37.9072 51.1405 38.4804 50.436 38.4804H49.2335C48.611 38.4804 48.1061 38.9851 48.1061 39.6078C48.1061 40.2303 48.6108 40.7352 49.2335 40.7352C49.938 40.7352 50.5112 41.3084 50.5112 42.0129C50.5112 42.7174 49.938 43.2906 49.2335 43.2906H48.031C47.4085 43.2906 46.9036 43.7953 46.9036 44.418C46.9036 45.0406 47.4083 45.5454 48.031 45.5454C48.7355 45.5454 49.3087 46.1186 49.3087 46.8231C49.3087 47.5277 48.7355 48.1008 48.031 48.1008H29.9123V37.2031C29.9123 36.5806 29.4076 36.0757 28.7849 36.0757C28.1623 36.0757 27.6576 36.5804 27.6576 37.2031V49.2281C27.6576 49.2696 27.6239 49.3032 27.5825 49.3032H20.3674C20.3259 49.3032 20.2923 49.2696 20.2923 49.2281V29.9875C20.2923 29.946 20.3259 29.9124 20.3674 29.9124H27.5825C27.6239 29.9124 27.6576 29.946 27.6576 29.9875V32.3926C27.6576 33.0151 28.1623 33.52 28.7849 33.52C29.4076 33.52 29.9123 33.0153 29.9123 32.3926V29.9875C29.9123 29.9328 29.9078 29.8792 29.904 29.8255C30.7493 29.1712 31.4253 28.5097 31.8663 28.0403C32.2836 27.5957 32.7397 27.2911 33.2222 27.1346C35.8758 26.2732 37.6616 24.886 38.6923 23.8741C39.984 22.6058 40.7551 21.2836 40.7551 20.3371C40.7551 19.837 40.9501 19.3683 41.3044 19.0173C41.663 18.662 42.1378 18.4742 42.651 18.4735C43.283 18.4794 43.7015 18.8027 43.9415 19.073C44.353 19.5364 44.5555 20.2027 44.4839 20.855C44.2377 23.095 42.4462 25.8639 39.9201 27.9089C39.5489 28.2094 39.4073 28.7112 39.5667 29.1613C39.726 29.6115 40.1518 29.9124 40.6294 29.9124H51.037C52.0731 29.9124 52.9159 30.7552 52.9159 31.7913C52.9159 32.8274 52.0733 33.6702 51.0373 33.6702Z" fill="white"/>
<path d="M23.975 44.4807C23.3525 44.4807 22.8417 44.9915 22.8417 45.614C22.8417 46.2366 23.3525 46.7473 23.975 46.7473C24.5976 46.7473 25.1083 46.2366 25.1083 45.614C25.1084 44.9916 24.5977 44.4807 23.975 44.4807Z" fill="white"/>
<path d="M69.9902 36.0004L71.9269 30.8756C72.0679 30.5028 72.0014 30.0834 71.7521 29.7722L68.3266 25.4966L68.5848 20.0242C68.6037 19.6262 68.4107 19.2475 68.0777 19.0288L63.4987 16.021L62.0533 10.7366C61.9482 10.3521 61.6478 10.0517 61.2635 9.9467L55.979 8.50136L52.9712 3.92247C52.7524 3.58933 52.3738 3.39723 51.9759 3.41537L46.5034 3.67356L42.2279 0.248076C41.9168 -0.00111119 41.4973 -0.0676268 41.1244 0.0732794L35.9996 2.00997L30.8751 0.07342C30.502 -0.0676268 30.0827 -0.0011112 29.7716 0.248217L25.496 3.6737L20.0236 3.41551C19.6237 3.39667 19.2469 3.58961 19.0283 3.92261L16.0206 8.50164L10.7362 9.94698C10.3517 10.0522 10.0513 10.3525 9.94629 10.7369L8.50094 16.0213L3.92191 19.029C3.58877 19.2478 3.39597 19.6263 3.41482 20.0243L3.673 25.4967L0.247519 29.7723C-0.00166846 30.0834 -0.0681841 30.5028 0.0727222 30.8758L2.00927 36.0004L0.0725816 41.1251C-0.0684653 41.4979 -0.00194971 41.9174 0.247378 42.2286L3.67286 46.5041L3.41468 51.9766C3.39583 52.3745 3.58877 52.7532 3.92177 52.9719L8.5008 55.9797L9.94615 61.2641C10.0513 61.6486 10.3517 61.949 10.736 62.054L16.0204 63.4994L19.0281 68.0784C19.2469 68.4115 19.6262 68.6031 20.0235 68.5855L25.4959 68.3273L29.7715 71.7528C30.0825 72.0021 30.5021 72.0686 30.8749 71.9276L35.9997 69.9909L41.1245 71.9276C41.2539 71.9764 41.3888 72.0003 41.5229 72.0003C41.7755 72.0003 42.0248 71.9155 42.2279 71.7528L46.5034 68.3273L51.9759 68.5855C52.3751 68.6032 52.7524 68.4114 52.9712 68.0784L55.979 63.4994L61.2635 62.054C61.6479 61.9488 61.9483 61.6485 62.0533 61.2641L63.4987 55.9797L68.0777 52.9719C68.4109 52.7531 68.6037 52.3745 68.5848 51.9766L68.3266 46.5041L71.7521 42.2286C72.0013 41.9175 72.0678 41.498 71.9269 41.1251L69.9902 36.0004ZM67.7305 36.399L69.5904 41.3207L66.3006 45.4268C66.1289 45.641 66.0413 45.9106 66.0543 46.1848L66.3023 51.4404L61.9048 54.3289C61.6755 54.4795 61.5087 54.7089 61.4363 54.9738L60.0482 60.0489L54.9731 61.437C54.7084 61.5094 54.4791 61.676 54.3282 61.9055L51.4397 66.303L46.1841 66.055C45.9097 66.0423 45.6403 66.1296 45.4261 66.3013L41.32 69.5911L36.3983 67.7312C36.2699 67.6827 36.1347 67.6585 35.9997 67.6585C35.8647 67.6585 35.7296 67.6828 35.6012 67.7312L30.6795 69.5911L26.5734 66.3013C26.3592 66.1296 26.0892 66.0423 25.8154 66.055L20.5598 66.303L17.6712 61.9055C17.5206 61.6762 17.2913 61.5094 17.0263 61.437L11.9513 60.0489L10.5632 54.9738C10.4908 54.709 10.3241 54.4798 10.0946 54.3289L5.69716 51.4404L5.94522 46.1848C5.95816 45.9104 5.87055 45.641 5.69885 45.4268L2.40907 41.3207L4.26911 36.399C4.36614 36.1422 4.36614 35.8587 4.26911 35.6019L2.40907 30.6802L5.69885 26.5741C5.87055 26.3599 5.95816 26.0903 5.94522 25.8161L5.69716 20.5605L10.0946 17.6719C10.324 17.5213 10.4908 17.292 10.5632 17.027L11.9513 11.952L17.0263 10.5639C17.2911 10.4915 17.5203 10.3248 17.6712 10.0953L20.5598 5.69786L25.8154 5.94592C26.0893 5.95872 26.3592 5.87125 26.5734 5.69954L30.6795 2.40976L35.6012 4.26981C35.8581 4.36684 36.1415 4.36684 36.3983 4.26981L41.32 2.40976L45.4261 5.69954C45.6403 5.87139 45.91 5.95886 46.1841 5.94592L51.4397 5.69786L54.3282 10.0953C54.4789 10.3247 54.7082 10.4915 54.9731 10.5639L60.0482 11.952L61.4363 17.027C61.5087 17.2918 61.6753 17.521 61.9048 17.6719L66.3023 20.5605L66.0543 25.8161C66.0413 26.0905 66.1289 26.3599 66.3006 26.5741L69.5904 30.6802L67.7304 35.6019C67.6335 35.8588 67.6335 36.1422 67.7305 36.399Z" fill="white"/>
<path d="M57.1829 16.5337C56.9024 16.2283 56.6114 15.9245 56.3176 15.6309C56.0239 15.3373 55.7203 15.0462 55.4148 14.7657C54.9562 14.3446 54.2431 14.375 53.822 14.8337C53.4009 15.2923 53.4313 16.0055 53.89 16.4266C54.1717 16.6853 54.4521 16.9539 54.7232 17.225C54.9942 17.496 55.2629 17.7766 55.5218 18.0584C55.7442 18.3006 56.0479 18.4233 56.3526 18.4233C56.625 18.4233 56.8983 18.3252 57.1147 18.1265C57.5734 17.7056 57.6039 16.9923 57.1829 16.5337Z" fill="white"/>
<path d="M51.4114 11.6894C45.9748 8.22583 39.4293 6.68655 32.9812 7.3541C26.4386 8.03191 20.2694 10.9713 15.6097 15.6309C10.4815 20.759 7.49573 27.5715 7.20239 34.8132C6.91087 42.0124 9.29531 49.002 13.9167 54.4943C14.1396 54.7592 14.4585 54.8958 14.78 54.8958C15.0362 54.8958 15.2938 54.8088 15.5052 54.6311C15.9815 54.2302 16.0428 53.519 15.642 53.0427C11.3837 47.9818 9.18661 41.5403 9.4552 34.9046C9.72548 28.2303 12.4772 21.9517 17.2038 17.2253C21.4985 12.9304 27.1842 10.2213 33.2134 9.59679C39.1583 8.98085 45.1905 10.3996 50.1997 13.591C50.725 13.9255 51.4216 13.7711 51.7562 13.246C52.0909 12.7208 51.9363 12.024 51.4114 11.6894Z" fill="white"/>
<path d="M60.2593 20.5372C59.9248 20.012 59.2276 19.8576 58.7028 20.1921C58.1775 20.5267 58.0233 21.2236 58.3578 21.7485C61.5492 26.7579 62.9676 32.7904 62.352 38.7349C61.7275 44.7641 59.0183 50.4497 54.7236 54.7447C49.9971 59.4711 43.7185 62.223 37.0443 62.4932C30.4097 62.763 23.967 60.5648 18.9062 56.3067C18.4299 55.9058 17.7187 55.9671 17.3178 56.4435C16.9169 56.9198 16.9782 57.631 17.4546 58.0319C22.6467 62.4004 29.1759 64.7702 35.9561 64.7701C36.3483 64.7701 36.7421 64.7621 37.1358 64.7462C44.3776 64.453 51.1899 61.4672 56.3182 56.3391C60.9779 51.6793 63.9174 45.51 64.595 38.9674C65.2626 32.5189 63.7229 25.9736 60.2593 20.5372Z" fill="white"/>
</g>
<defs>
<clipPath id="clip0">
<rect width="72" height="72" fill="white"/>
</clipPath>
</defs>
</svg>
