<svg width="72" height="72" viewBox="0 0 72 72" fill="none" xmlns="http://www.w3.org/2000/svg">
<path d="M51.4688 55.6875C50.6925 55.6875 50.0625 56.3175 50.0625 57.0938C50.0625 57.87 50.6925 58.5 51.4688 58.5C52.245 58.5 52.875 57.87 52.875 57.0938C52.875 56.3175 52.245 55.6875 51.4688 55.6875Z" fill="white"/>
<path d="M54.9312 51.1401L48.2473 48.9126L45.8478 44.1135C48.0095 41.9133 49.5104 39.0021 50.0165 35.9655L50.3158 34.1719H52.875C55.2012 34.1719 57.0938 32.2793 57.0938 29.9531V21.0938C57.0938 9.46266 47.6311 0 36 0C24.3391 0 14.9062 9.43552 14.9062 21.0938V29.9531C14.9062 31.7863 16.082 33.3495 17.7188 33.93V35.5781C17.7188 37.9043 19.6113 39.7969 21.9375 39.7969H23.1725C23.7821 41.1211 24.5711 42.3477 25.5313 43.4495C25.7304 43.6784 25.9381 43.9003 26.1509 44.1162L23.7527 48.9126L17.0686 51.1403C9.297 53.7317 3.65625 61.9131 3.65625 70.5938C3.65625 71.3704 4.28583 72 5.0625 72H66.9375C67.714 72 68.3438 71.3704 68.3438 70.5938C68.3438 61.9131 62.7031 53.7317 54.9312 51.1401ZM54.2812 29.9531C54.2812 30.7285 53.6504 31.3594 52.875 31.3594H50.7288C51.0863 28.5905 51.3245 25.644 51.4202 22.7419C51.423 22.66 51.4253 22.5804 51.4278 22.5H54.2812V29.9531ZM19.125 31.3594C18.3496 31.3594 17.7188 30.7285 17.7188 29.9531V22.5H20.5732C20.5778 22.6467 20.5827 22.794 20.5882 22.9424C20.5883 22.9475 20.5886 22.9524 20.5888 22.9575C20.5888 22.9579 20.5888 22.9583 20.5888 22.9587C20.6872 25.7813 20.9223 28.6514 21.2716 31.3592H19.125V31.3594ZM21.9375 36.9844C21.1621 36.9844 20.5312 36.3535 20.5312 35.5781V34.1719H21.6841L21.9833 35.9661C22.0404 36.3071 22.1106 36.6469 22.1917 36.9844H21.9375ZM20.5336 19.6875H17.7722C18.4845 10.2627 26.3499 2.8125 36 2.8125C45.6072 2.8125 53.5072 10.2617 54.2277 19.6875H51.4665C51.3652 11.9212 45.0409 5.625 37.2587 5.625H34.7415C26.9595 5.625 20.6348 11.9212 20.5336 19.6875ZM34.7414 8.4375H37.2586C43.5599 8.4375 48.6599 13.5915 48.6562 19.8858C48.6562 20.3283 48.6527 20.7136 48.6453 21.0642C48.6453 21.0687 48.6451 21.0734 48.6451 21.078L46.8862 20.8267C42.1078 20.1444 37.596 17.8885 34.1819 14.4744C33.918 14.2107 33.5604 14.0625 33.1875 14.0625C29.4109 14.0625 25.7957 15.7832 23.4059 18.6902C23.9948 12.9641 28.8356 8.4375 34.7414 8.4375ZM25.1072 36.9844C24.4032 34.6425 23.5977 27.7519 23.4197 23.3363L25.3124 20.8126C27.0506 18.4957 29.755 17.0561 32.6318 16.8909C36.417 20.4931 41.3138 22.872 46.4885 23.6108L48.5588 23.9067C48.4204 26.8436 48.1376 29.7908 47.7325 32.5014C47.7323 32.5022 47.7322 32.5032 47.7321 32.5042C47.6033 33.3757 47.5017 33.9365 47.2424 35.5029C46.4977 39.9698 43.1646 44.0093 38.7645 45.1094C36.9537 45.5615 35.046 45.5614 33.2362 45.1094C30.4888 44.4226 27.9696 42.5216 26.3438 39.7969H29.2106C29.7911 41.4336 31.3542 42.6094 33.1875 42.6094H36C38.3309 42.6094 40.2188 40.7216 40.2188 38.3906C40.2188 36.0644 38.3262 34.1719 36 34.1719H33.1875C31.3134 34.1719 29.7734 35.3824 29.2082 36.9844H25.1072ZM33.0692 47.9554C34.0338 48.1586 35.0172 48.2625 36 48.2625C36.7694 48.2625 37.5389 48.1981 38.2996 48.0732L35.8148 50.7011L33.0692 47.9554ZM33.8815 52.7455L29.4211 57.4623C28.1932 55.1119 27.1381 52.6658 26.2727 50.1615L27.9477 46.8115L33.8815 52.7455ZM43.814 46.3351L45.727 50.1614C44.8602 52.6698 43.8048 55.1168 42.5782 57.4644L37.8042 52.6905L43.814 46.3351ZM31.7812 38.3906C31.7812 37.6142 32.411 36.9844 33.1875 36.9844H36C36.7754 36.9844 37.4062 37.6152 37.4062 38.3906C37.4062 39.1672 36.7764 39.7969 36 39.7969H33.1875C32.4121 39.7969 31.7812 39.166 31.7812 38.3906ZM6.525 69.1875C7.0823 62.2211 11.7186 55.889 17.9581 53.8083L23.8776 51.8356C24.9621 54.8345 26.3056 57.7492 27.8802 60.5178C27.8828 60.5226 27.8854 60.5274 27.888 60.532C27.888 60.5322 27.8882 60.5322 27.8882 60.5323C29.0386 62.5558 30.3335 64.5331 31.7374 66.4103L33.4673 69.1875H6.525ZM36 67.934L34.0928 64.8721C34.0715 64.8378 34.0487 64.8045 34.0245 64.7722C32.8857 63.2531 31.8234 61.6645 30.8559 60.0384L35.871 54.7349L41.1555 60.0193C40.1815 61.6572 39.1155 63.2524 37.9758 64.7719C37.9069 64.8637 38.0046 64.719 36 67.934ZM38.5327 69.1875L40.2625 66.4104C41.6725 64.5261 42.9767 62.5328 44.1387 60.4856C44.1457 60.4732 44.1523 60.4606 44.1593 60.4482C44.1602 60.4467 44.161 60.4453 44.1619 60.4437C45.7165 57.7015 47.046 54.8121 48.1224 51.8356L54.0418 53.8083C60.2814 55.889 64.9177 62.2211 65.475 69.1875H38.5327Z" fill="white"/>
<path d="M61.2487 63.4966C60.3089 61.6154 58.9323 59.9442 57.2677 58.6637C56.6521 58.1899 55.7692 58.3051 55.2957 58.9208C54.8221 59.5364 54.9373 60.4193 55.5528 60.8929C56.8823 61.9156 57.9817 63.2506 58.7325 64.7535C59.0802 65.4494 59.9254 65.7295 60.619 65.383C61.3137 65.036 61.5956 64.1914 61.2487 63.4966Z" fill="white"/>
</svg>
