<svg width="29" height="24" viewBox="0 0 29 24" fill="none" xmlns="http://www.w3.org/2000/svg">
<path d="M28.3938 2.79194C27.7527 3.07621 27.0872 3.30047 26.4044 3.46283C27.1568 2.74784 27.7225 1.85353 28.0417 0.855331C28.1328 0.570362 27.8232 0.323941 27.5659 0.476521C26.616 1.03999 25.5927 1.46269 24.5245 1.73303C24.4625 1.74872 24.3986 1.75667 24.3344 1.75667C24.1399 1.75667 23.9507 1.68442 23.8019 1.5533C22.6654 0.55165 21.2037 0 19.6861 0C19.0294 0 18.3664 0.102353 17.7154 0.304244C15.6985 0.929827 14.1422 2.59357 13.6539 4.64625C13.4707 5.41618 13.4211 6.18682 13.5064 6.9367C13.5162 7.02288 13.4754 7.08302 13.4503 7.11123C13.4062 7.16068 13.3437 7.18903 13.2788 7.18903C13.2715 7.18903 13.2641 7.18868 13.2567 7.18798C8.8416 6.77779 4.86029 4.65075 2.04609 1.19876C1.90259 1.02268 1.62739 1.04428 1.51301 1.24047C0.961917 2.18592 0.670684 3.26727 0.670684 4.36761C0.670684 6.05394 1.34819 7.64311 2.52501 8.80163C2.03012 8.6843 1.55114 8.4995 1.1062 8.25238C0.890938 8.13279 0.626084 8.28649 0.623059 8.5327C0.592248 11.0378 2.05897 13.267 4.25616 14.2707C4.21191 14.2718 4.16766 14.2723 4.12334 14.2723C3.77506 14.2723 3.42241 14.2386 3.07533 14.1723C2.83291 14.126 2.62926 14.356 2.70453 14.591C3.4177 16.8175 5.33477 18.4587 7.6289 18.8313C5.72491 20.1094 3.50767 20.7836 1.19997 20.7836L0.480538 20.7832C0.258877 20.7832 0.0714047 20.9277 0.0149167 21.1424C-0.0407271 21.3538 0.0617672 21.5769 0.250787 21.6868C2.8512 23.2002 5.81735 24 8.82985 24C11.4668 24 13.9334 23.4767 16.1613 22.4447C18.2036 21.4987 20.0084 20.1463 21.5255 18.4251C22.9388 16.8218 24.0439 14.9709 24.8101 12.924C25.5405 10.9728 25.9266 8.8909 25.9266 6.90322V6.80853C25.9265 6.48938 26.0709 6.18907 26.3227 5.98465C27.2783 5.20874 28.1105 4.29537 28.7961 3.26994C28.9771 2.99918 28.6916 2.65984 28.3938 2.79194Z" fill="white"/>
</svg>
